# xmcd
#
# Track frame offsets:
#	150
#	9904
#	24789
#	41129
#	56188
#	70438
#	81426
#	92446
#	107872
#	122730
#	136789
#	155688
#	166827
#	182582
#	194313
#	208856
#	221240
#	237085
#	245130
#
# Disc length: 3394 seconds
#
# Revision: 1
# Processed by: cddbd v1.5.2PL0 Copyright (c) Steve Scherf et al.
# Submitted via: EZCDAudioConverter 2.1.7.1
#
DISCID=0d0d4013
DTITLE=V/A - Buttons:  From Champaign To Chicago
DYEAR=2012
DGENRE=
TTITLE0=Prettyboys - I Wanna Make You!
TTITLE1=Julian Leal - Get Away
TTITLE2=All-Night Newsboys - She's Gone Hollywood
TTITLE3=The Names - It's A Miracle
TTITLE4=Kevin Lee and Heartbeat - Tonight
TTITLE5=Band Jocks - At Practice
TTITLE6=The Vertebrats - Diamonds In The Rough (Nineteen)
TTITLE7=Nines - Holiday
TTITLE8=The Jerks - So Lifelike
TTITLE9=Northshore - School Yard
TTITLE10=Paul - I Have Always Loved You
TTITLE11=Tom Orsi - Where Are You Now
TTITLE12=Kind - Total Insanity
TTITLE13=Eyz - Midnight Girls
TTITLE14=Shoes - In My Arms Again
TTITLE15=Loose Lips - Kyle
TTITLE16=Lay-Z - More And More
TTITLE17=The Jets - Be For Me
TTITLE18=Contra-Band - See You Tonight
EXTD=
EXTT0=
EXTT1=
EXTT2=
EXTT3=
EXTT4=
EXTT5=
EXTT6=
EXTT7=
EXTT8=
EXTT9=
EXTT10=
EXTT11=
EXTT12=
EXTT13=
EXTT14=
EXTT15=
EXTT16=
EXTT17=
EXTT18=
PLAYORDER=
